# xmcd
#
# Track frame offsets:
#	150
#	15980
#	29705
#	43381
#	60510
#	74804
#	91716
#	106785
#	121451
#	140286
#	155535
#	173105
#	189132
#	205418
#	220033
#	234908
#	251953
#	267900
#	283235
#	296052
#
# Disc length: 4151 seconds
#
# Revision: 0
# Processed by: cddbd v1.5PL3 Copyright (c) Steve Scherf et al.
# Submitted via: audiograbber 1.83.01
#
DISCID=2c103514
DTITLE=сборник - 5 Звезд. Танцевальный 3. (2004)
DYEAR=1900
DGENRE=попса
TTITLE0=Краски. - Весна.
TTITLE1=Валерия. - Черно-белый цвет. (Rmx)
TTITLE2=Hi-Fi. - Седьмой лепесток.
TTITLE3=Иванушки International. - Билетик в кино.
TTITLE4=Катя Лель. - Муси-пуси.
TTITLE5=Reflex. - Может быть показалось.
TTITLE6=Пьер Нарцисс. - Целуй-целуй.
TTITLE7=Алексей Романов. - 10 Поцелуев.
TTITLE8=Александр Буйнов. - Горький мед.
TTITLE9=Ольга Орлова. - Выше неба.
TTITLE10=Авраам Руссо. - Знаю. (Rmx)
TTITLE11=Dado. - Я о тебе мечтаю.
TTITLE12=Вирус. - Тайна.
TTITLE13=Планка. - Просто танцуй.
TTITLE14=Bikini. - Никуда не денешься.
TTITLE15=Другие правила. - Ветер памяти.
TTITLE16=Наташа Власова. - Это будет радость. (Власова and Dj Zolotofm Rmx)
TTITLE17=Вячеслав Бутусов and Ю-Питер. - Песня идущего домой. (Rmx Dj Skydreamer)
TTITLE18=Народный Артист. - Зажигай.
TTITLE19=Дюна and Наталья Сенчукова. - Милый мой ботаник.
EXTD=
EXTT0=
EXTT1=
EXTT2=
EXTT3=
EXTT4=
EXTT5=
EXTT6=
EXTT7=
EXTT8=
EXTT9=
EXTT10=
EXTT11=
EXTT12=
EXTT13=
EXTT14=
EXTT15=
EXTT16=
EXTT17=
EXTT18=
EXTT19=
PLAYORDER=
